<svg version="1.1" xmlns="http://www.w3.org/2000/svg" viewBox="0 0 860.6570168844271 250.5175961308371" width="860.6570168844271" height="250.5175961308371">
  <!-- svg-source:excalidraw -->
  
  <defs>
    <style class="style-fonts">
      @font-face {
        font-family: "Virgil";
        src: url("https://excalidraw.com/Virgil.woff2");
      }
      @font-face {
        font-family: "Cascadia";
        src: url("https://excalidraw.com/Cascadia.woff2");
      }
      @font-face {
        font-family: "Assistant";
        src: url("https://excalidraw.com/Assistant-Regular.woff2");
      }
    </style>
    
  </defs>
  <rect x="0" y="0" width="860.6570168844271" height="250.5175961308371" fill="#ffffff"></rect><g stroke-linecap="round" transform="translate(107.14670167850295 47.04747116254731) rotate(0 78.21132725867676 78.21132725867682)"><path d="M71.26 -0.38 C81.21 -2.23, 93.45 1.22, 103.51 4.83 C113.57 8.43, 123.92 14.24, 131.63 21.27 C139.35 28.31, 145.73 37.58, 149.77 47.04 C153.82 56.49, 156.01 67.27, 155.88 78.01 C155.75 88.74, 153.45 101.66, 149 111.45 C144.54 121.25, 137.01 129.81, 129.16 136.77 C121.32 143.73, 111.88 149.93, 101.94 153.21 C92 156.48, 80.07 157.67, 69.53 156.43 C58.98 155.18, 47.69 151.15, 38.66 145.76 C29.64 140.37, 21.69 132.66, 15.35 124.09 C9.02 115.52, 2.94 104.93, 0.67 94.33 C-1.59 83.74, -0.82 70.96, 1.77 60.54 C4.36 50.11, 9.89 40.04, 16.21 31.78 C22.52 23.53, 30.2 16.18, 39.67 11.01 C49.13 5.83, 67.17 2.13, 73.01 0.72 C78.85 -0.69, 74.57 1.4, 74.73 2.55 M44.36 8.43 C53.19 3.18, 66.34 2.2, 76.72 1.53 C87.1 0.86, 96.8 0.47, 106.61 4.42 C116.43 8.38, 128.35 17.18, 135.63 25.26 C142.91 33.35, 146.97 43.37, 150.29 52.95 C153.62 62.53, 156.2 72.62, 155.58 82.74 C154.96 92.85, 151.46 104.35, 146.58 113.65 C141.69 122.95, 134.46 131.88, 126.29 138.52 C118.11 145.16, 107.74 150.94, 97.53 153.51 C87.32 156.07, 75.34 155.63, 65.01 153.91 C54.68 152.18, 44.59 148.98, 35.57 143.16 C26.56 137.33, 16.88 128.23, 10.94 118.94 C5.01 109.66, 1.35 97.65, -0.03 87.43 C-1.42 77.21, -0.69 67.51, 2.63 57.6 C5.95 47.69, 12.93 36.3, 19.89 27.97 C26.86 19.64, 40.52 10.75, 44.43 7.62 C48.35 4.5, 42.94 7.89, 43.38 9.2" stroke="#1e1e1e" stroke-width="1" fill="none"></path></g><g stroke-linecap="round"><g transform="translate(10 125.85759267910169) rotate(0 397.64285332569364 0)"><path d="M0 0 C294.86 -0.72, 590.29 0.64, 795.29 0 M0 0 C170.37 -0.64, 340.62 -0.65, 795.29 0" stroke="#1e1e1e" stroke-width="1" fill="none"></path></g><g transform="translate(10 125.85759267910169) rotate(0 397.64285332569364 0)"><path d="M771.78 8.52 C779.45 3.55, 788.5 3.78, 795.29 0 M771.78 8.52 C777.22 6.83, 782.35 4.99, 795.29 0" stroke="#1e1e1e" stroke-width="1" fill="none"></path></g><g transform="translate(10 125.85759267910169) rotate(0 397.64285332569364 0)"><path d="M771.8 -8.58 C779.43 -7.2, 788.47 -0.62, 795.29 0 M771.8 -8.58 C777.23 -6.61, 782.36 -4.8, 795.29 0" stroke="#1e1e1e" stroke-width="1" fill="none"></path></g></g><mask></mask><g stroke-linecap="round" transform="translate(228.16843877523138 10.000000000000057) rotate(0 115.25879806541849 115.25879806541852)"><path d="M102.2 0.03 C114.25 -3.16, 128.72 0.14, 141.49 3.33 C154.25 6.52, 167.64 12.03, 178.78 19.15 C189.91 26.26, 200.44 35.73, 208.27 46.03 C216.1 56.32, 222.16 68.37, 225.75 80.93 C229.33 93.48, 230.43 108.08, 229.76 121.35 C229.09 134.62, 226.89 148.47, 221.71 160.56 C216.52 172.64, 207.77 184.3, 198.65 193.88 C189.53 203.45, 178.62 212.12, 167 218 C155.38 223.88, 141.81 227.45, 128.94 229.16 C116.07 230.87, 102.58 230.99, 89.79 228.24 C77 225.48, 63.27 219.84, 52.19 212.62 C41.11 205.39, 31.15 195.6, 23.31 184.89 C15.46 174.18, 9.04 160.95, 5.11 148.35 C1.17 135.75, -1.09 122.31, -0.31 109.29 C0.46 96.28, 4.65 82.45, 9.78 70.25 C14.92 58.05, 21.77 45.6, 30.51 36.1 C39.26 26.6, 48.16 19.09, 62.26 13.23 C76.37 7.37, 104.04 2.59, 115.15 0.92 C126.26 -0.74, 128.75 1.61, 128.93 3.22 M96.48 2.93 C108.6 -0.9, 124.75 0.15, 137.92 2.27 C151.09 4.38, 164.49 8.99, 175.51 15.63 C186.53 22.28, 196.11 31.59, 204.04 42.13 C211.98 52.67, 218.6 66.22, 223.13 78.87 C227.66 91.52, 231.07 104.92, 231.2 118.03 C231.32 131.13, 228.63 145.64, 223.88 157.51 C219.12 169.38, 211.16 179.52, 202.65 189.24 C194.14 198.96, 184.3 209.06, 172.83 215.83 C161.37 222.6, 146.85 227.93, 133.85 229.83 C120.86 231.73, 107.88 229.98, 94.87 227.23 C81.86 224.48, 67.31 219.71, 55.81 213.31 C44.31 206.91, 33.91 198.97, 25.86 188.84 C17.81 178.7, 11.79 165.02, 7.51 152.5 C3.22 139.98, -0.01 126.83, 0.15 113.72 C0.3 100.6, 3.75 86.33, 8.42 73.79 C13.1 61.26, 19.89 48.44, 28.19 38.52 C36.48 28.61, 46.47 20.25, 58.18 14.28 C69.89 8.31, 91.7 4.31, 98.44 2.71 C105.17 1.1, 98.8 3.05, 98.62 4.66" stroke="#1e1e1e" stroke-width="1" fill="none"></path></g><g stroke-linecap="round" transform="translate(527.0180371958559 50.3405788717605) rotate(0 74.91821874252201 74.91821874252201)"><path d="M43.55 5.73 C52.55 0.42, 66.18 -0.94, 77.26 -0.42 C88.33 0.1, 100.36 3.68, 110 8.84 C119.65 14, 128.64 21.97, 135.15 30.54 C141.66 39.1, 147.11 49.72, 149.06 60.22 C151.01 70.72, 149.59 83.03, 146.85 93.52 C144.1 104.02, 139.39 114.92, 132.59 123.19 C125.79 131.46, 115.86 138.77, 106.05 143.13 C96.25 147.49, 84.65 149.62, 73.76 149.37 C62.87 149.12, 50.55 146.64, 40.73 141.63 C30.91 136.63, 21.24 127.94, 14.84 119.36 C8.45 110.79, 4.41 100.61, 2.37 90.19 C0.33 79.77, -0.02 67.41, 2.61 56.85 C5.24 46.29, 10.28 35.52, 18.14 26.81 C25.99 18.1, 43.43 8.38, 49.73 4.59 C56.03 0.81, 55.67 3.05, 55.94 4.11 M95.12 1.67 C105.47 3.78, 117.4 12.9, 125.64 20.53 C133.88 28.15, 140.33 37.68, 144.58 47.41 C148.84 57.13, 151.67 68.29, 151.18 78.86 C150.69 89.42, 146.91 101.21, 141.62 110.79 C136.34 120.38, 128.25 130.12, 119.46 136.36 C110.67 142.61, 99.61 146.27, 88.88 148.27 C78.15 150.26, 65.61 151.2, 55.06 148.33 C44.51 145.46, 34.03 138.42, 25.57 131.05 C17.11 123.69, 8.73 114.16, 4.29 104.15 C-0.16 94.14, -1.94 81.99, -1.1 70.97 C-0.27 59.94, 4.11 47.38, 9.32 38.01 C14.53 28.63, 21.5 21.08, 30.16 14.7 C38.81 8.33, 50.24 1.84, 61.23 -0.24 C72.23 -2.32, 90.51 1.37, 96.14 2.24 C101.77 3.1, 95.22 3.82, 95.03 4.94" stroke="#1e1e1e" stroke-width="1" fill="none"></path></g><g transform="translate(834.9236832967806 101.15927880794055) rotate(0 7.866666793823242 17.5)"><text x="0" y="0" font-family="Virgil, Segoe UI Emoji" font-size="28px" fill="#1e1e1e" text-anchor="start" style="white-space: pre;" direction="ltr" dominant-baseline="text-before-edge">x</text></g></svg>